<mxfile host="Electron" agent="Mozilla/5.0 (Windows NT 10.0; Win64; x64) AppleWebKit/537.36 (KHTML, like Gecko) draw.io/24.7.17 Chrome/128.0.6613.36 Electron/32.0.1 Safari/537.36" version="24.7.17">
  <diagram name="페이지-1" id="QqQlWhyfN8wlViYv96_G">
    <mxGraphModel dx="683" dy="402" grid="1" gridSize="10" guides="1" tooltips="1" connect="1" arrows="1" fold="1" page="1" pageScale="1" pageWidth="680" pageHeight="2120" math="0" shadow="0">
      <root>
        <mxCell id="0" />
        <mxCell id="1" parent="0" />
        <mxCell id="aZAM5jkkKFrz5zmuv4U6-90" value="&lt;font style=&quot;font-size: 10px;&quot;&gt;게임 시작&lt;/font&gt;" style="ellipse;whiteSpace=wrap;html=1;fontSize=10;" parent="1" vertex="1">
          <mxGeometry x="280" y="40" width="120" height="40" as="geometry" />
        </mxCell>
        <mxCell id="aZAM5jkkKFrz5zmuv4U6-91" value="&lt;font style=&quot;font-size: 10px;&quot;&gt;랜덤 숫자 생성&lt;/font&gt;" style="rounded=0;whiteSpace=wrap;html=1;fontSize=10;" parent="1" vertex="1">
          <mxGeometry x="280" y="200" width="120" height="40" as="geometry" />
        </mxCell>
        <mxCell id="aZAM5jkkKFrz5zmuv4U6-92" value="" style="endArrow=classic;html=1;rounded=0;exitX=0.5;exitY=1;exitDx=0;exitDy=0;entryX=0.5;entryY=0;entryDx=0;entryDy=0;fontSize=10;" parent="1" source="aZAM5jkkKFrz5zmuv4U6-90" target="aZAM5jkkKFrz5zmuv4U6-151" edge="1">
          <mxGeometry width="50" height="50" relative="1" as="geometry">
            <mxPoint x="343" y="570" as="sourcePoint" />
            <mxPoint x="370" y="110" as="targetPoint" />
          </mxGeometry>
        </mxCell>
        <mxCell id="aZAM5jkkKFrz5zmuv4U6-93" value="" style="endArrow=classic;html=1;rounded=0;exitX=0.5;exitY=1;exitDx=0;exitDy=0;entryX=0.5;entryY=0;entryDx=0;entryDy=0;fontSize=10;" parent="1" source="aZAM5jkkKFrz5zmuv4U6-91" target="aZAM5jkkKFrz5zmuv4U6-94" edge="1">
          <mxGeometry width="50" height="50" relative="1" as="geometry">
            <mxPoint x="322" y="570" as="sourcePoint" />
            <mxPoint x="373" y="255" as="targetPoint" />
          </mxGeometry>
        </mxCell>
        <mxCell id="aZAM5jkkKFrz5zmuv4U6-94" value="&lt;font style=&quot;font-size: 10px;&quot;&gt;숫자가 서로&lt;/font&gt;&lt;div style=&quot;font-size: 10px;&quot;&gt;&lt;font style=&quot;font-size: 10px;&quot;&gt;겹치는가?&lt;/font&gt;&lt;/div&gt;" style="rhombus;whiteSpace=wrap;html=1;fontSize=10;" parent="1" vertex="1">
          <mxGeometry x="280" y="280" width="120" height="80" as="geometry" />
        </mxCell>
        <mxCell id="aZAM5jkkKFrz5zmuv4U6-95" value="" style="endArrow=classic;html=1;rounded=0;exitX=0.5;exitY=1;exitDx=0;exitDy=0;entryX=0.5;entryY=0;entryDx=0;entryDy=0;fontSize=10;" parent="1" source="aZAM5jkkKFrz5zmuv4U6-94" target="aZAM5jkkKFrz5zmuv4U6-161" edge="1">
          <mxGeometry width="50" height="50" relative="1" as="geometry">
            <mxPoint x="340" y="440" as="sourcePoint" />
            <mxPoint x="360" y="390" as="targetPoint" />
          </mxGeometry>
        </mxCell>
        <mxCell id="aZAM5jkkKFrz5zmuv4U6-96" value="N" style="edgeLabel;html=1;align=center;verticalAlign=middle;resizable=0;points=[];fontSize=10;" parent="aZAM5jkkKFrz5zmuv4U6-95" vertex="1" connectable="0">
          <mxGeometry relative="1" as="geometry">
            <mxPoint as="offset" />
          </mxGeometry>
        </mxCell>
        <mxCell id="aZAM5jkkKFrz5zmuv4U6-97" value="11회말을&lt;div style=&quot;font-size: 10px;&quot;&gt;초과했는가?&lt;/div&gt;" style="rhombus;whiteSpace=wrap;html=1;fontSize=10;" parent="1" vertex="1">
          <mxGeometry x="280" y="480" width="120" height="80" as="geometry" />
        </mxCell>
        <mxCell id="aZAM5jkkKFrz5zmuv4U6-98" value="" style="endArrow=classic;html=1;rounded=0;exitX=1;exitY=0.5;exitDx=0;exitDy=0;fontSize=10;entryX=0;entryY=0.5;entryDx=0;entryDy=0;" parent="1" source="aZAM5jkkKFrz5zmuv4U6-97" target="aZAM5jkkKFrz5zmuv4U6-176" edge="1">
          <mxGeometry width="50" height="50" relative="1" as="geometry">
            <mxPoint x="328" y="520" as="sourcePoint" />
            <mxPoint x="420" y="550" as="targetPoint" />
            <Array as="points" />
          </mxGeometry>
        </mxCell>
        <mxCell id="aZAM5jkkKFrz5zmuv4U6-99" value="Y" style="edgeLabel;html=1;align=center;verticalAlign=middle;resizable=0;points=[];fontSize=10;" parent="aZAM5jkkKFrz5zmuv4U6-98" vertex="1" connectable="0">
          <mxGeometry relative="1" as="geometry">
            <mxPoint as="offset" />
          </mxGeometry>
        </mxCell>
        <mxCell id="aZAM5jkkKFrz5zmuv4U6-100" value="" style="endArrow=classic;html=1;rounded=0;exitX=0.5;exitY=1;exitDx=0;exitDy=0;entryX=0.5;entryY=0;entryDx=0;entryDy=0;fontSize=10;" parent="1" source="aZAM5jkkKFrz5zmuv4U6-97" target="aZAM5jkkKFrz5zmuv4U6-153" edge="1">
          <mxGeometry width="50" height="50" relative="1" as="geometry">
            <mxPoint x="328" y="565" as="sourcePoint" />
            <mxPoint x="340" y="600" as="targetPoint" />
          </mxGeometry>
        </mxCell>
        <mxCell id="aZAM5jkkKFrz5zmuv4U6-101" value="N" style="edgeLabel;html=1;align=center;verticalAlign=middle;resizable=0;points=[];fontSize=10;" parent="aZAM5jkkKFrz5zmuv4U6-100" vertex="1" connectable="0">
          <mxGeometry relative="1" as="geometry">
            <mxPoint as="offset" />
          </mxGeometry>
        </mxCell>
        <mxCell id="aZAM5jkkKFrz5zmuv4U6-102" value="&lt;font style=&quot;font-size: 10px;&quot;&gt;대답 입력&lt;/font&gt;" style="shape=parallelogram;perimeter=parallelogramPerimeter;whiteSpace=wrap;html=1;fixedSize=1;fontSize=10;" parent="1" vertex="1">
          <mxGeometry x="280" y="680" width="120" height="40" as="geometry" />
        </mxCell>
        <mxCell id="aZAM5jkkKFrz5zmuv4U6-103" value="&lt;font style=&quot;font-size: 10px;&quot;&gt;&lt;font style=&quot;font-size: 10px;&quot;&gt;첫 번째&amp;nbsp;&lt;/font&gt;&lt;span style=&quot;background-color: initial; font-size: 10px;&quot;&gt;숫자가&lt;/span&gt;&lt;/font&gt;&lt;div style=&quot;font-size: 10px;&quot;&gt;&lt;font style=&quot;font-size: 10px;&quot;&gt;일치하는가?&lt;/font&gt;&lt;/div&gt;" style="rhombus;whiteSpace=wrap;html=1;fontSize=10;" parent="1" vertex="1">
          <mxGeometry x="280" y="760" width="120" height="80" as="geometry" />
        </mxCell>
        <mxCell id="aZAM5jkkKFrz5zmuv4U6-104" value="" style="endArrow=classic;html=1;rounded=0;exitX=0.5;exitY=1;exitDx=0;exitDy=0;entryX=0.5;entryY=0;entryDx=0;entryDy=0;fontSize=10;" parent="1" source="aZAM5jkkKFrz5zmuv4U6-102" target="aZAM5jkkKFrz5zmuv4U6-103" edge="1">
          <mxGeometry width="50" height="50" relative="1" as="geometry">
            <mxPoint x="328" y="672" as="sourcePoint" />
            <mxPoint x="378" y="622" as="targetPoint" />
          </mxGeometry>
        </mxCell>
        <mxCell id="aZAM5jkkKFrz5zmuv4U6-105" value="&lt;font style=&quot;font-size: 10px;&quot;&gt;첫 번째&amp;nbsp;&lt;/font&gt;&lt;span style=&quot;font-size: 10px; background-color: initial;&quot;&gt;숫자가&lt;/span&gt;&lt;div style=&quot;font-size: 10px;&quot;&gt;&lt;font style=&quot;font-size: 10px;&quot;&gt;존재하는가?&lt;/font&gt;&lt;/div&gt;" style="rhombus;whiteSpace=wrap;html=1;fontSize=10;" parent="1" vertex="1">
          <mxGeometry x="280" y="880" width="120" height="80" as="geometry" />
        </mxCell>
        <mxCell id="aZAM5jkkKFrz5zmuv4U6-106" value="" style="endArrow=classic;html=1;rounded=0;exitX=0.5;exitY=1;exitDx=0;exitDy=0;entryX=0.5;entryY=0;entryDx=0;entryDy=0;fontSize=10;" parent="1" source="aZAM5jkkKFrz5zmuv4U6-103" target="aZAM5jkkKFrz5zmuv4U6-105" edge="1">
          <mxGeometry width="50" height="50" relative="1" as="geometry">
            <mxPoint x="328" y="807" as="sourcePoint" />
            <mxPoint x="378" y="757" as="targetPoint" />
          </mxGeometry>
        </mxCell>
        <mxCell id="aZAM5jkkKFrz5zmuv4U6-107" value="N" style="edgeLabel;html=1;align=center;verticalAlign=middle;resizable=0;points=[];fontSize=10;" parent="aZAM5jkkKFrz5zmuv4U6-106" vertex="1" connectable="0">
          <mxGeometry relative="1" as="geometry">
            <mxPoint as="offset" />
          </mxGeometry>
        </mxCell>
        <mxCell id="aZAM5jkkKFrz5zmuv4U6-108" value="&lt;font style=&quot;font-size: 10px;&quot;&gt;스트라이크 증가&lt;/font&gt;" style="rounded=0;whiteSpace=wrap;html=1;fontSize=10;" parent="1" vertex="1">
          <mxGeometry x="440" y="780" width="120" height="40" as="geometry" />
        </mxCell>
        <mxCell id="aZAM5jkkKFrz5zmuv4U6-109" value="" style="endArrow=classic;html=1;rounded=0;exitX=1;exitY=0.5;exitDx=0;exitDy=0;entryX=0;entryY=0.5;entryDx=0;entryDy=0;fontSize=10;" parent="1" source="aZAM5jkkKFrz5zmuv4U6-103" target="aZAM5jkkKFrz5zmuv4U6-108" edge="1">
          <mxGeometry width="50" height="50" relative="1" as="geometry">
            <mxPoint x="328" y="807" as="sourcePoint" />
            <mxPoint x="378" y="757" as="targetPoint" />
          </mxGeometry>
        </mxCell>
        <mxCell id="aZAM5jkkKFrz5zmuv4U6-110" value="Y" style="edgeLabel;html=1;align=center;verticalAlign=middle;resizable=0;points=[];fontSize=10;" parent="aZAM5jkkKFrz5zmuv4U6-109" vertex="1" connectable="0">
          <mxGeometry relative="1" as="geometry">
            <mxPoint as="offset" />
          </mxGeometry>
        </mxCell>
        <mxCell id="aZAM5jkkKFrz5zmuv4U6-111" value="" style="endArrow=classic;html=1;rounded=0;exitX=1;exitY=0.5;exitDx=0;exitDy=0;entryX=1;entryY=0.5;entryDx=0;entryDy=0;fontSize=10;" parent="1" source="aZAM5jkkKFrz5zmuv4U6-94" target="aZAM5jkkKFrz5zmuv4U6-91" edge="1">
          <mxGeometry width="50" height="50" relative="1" as="geometry">
            <mxPoint x="300" y="300" as="sourcePoint" />
            <mxPoint x="390" y="260" as="targetPoint" />
            <Array as="points">
              <mxPoint x="440" y="320" />
              <mxPoint x="440" y="220" />
            </Array>
          </mxGeometry>
        </mxCell>
        <mxCell id="aZAM5jkkKFrz5zmuv4U6-112" value="Y" style="edgeLabel;html=1;align=center;verticalAlign=middle;resizable=0;points=[];fontSize=10;" parent="aZAM5jkkKFrz5zmuv4U6-111" vertex="1" connectable="0">
          <mxGeometry relative="1" as="geometry">
            <mxPoint as="offset" />
          </mxGeometry>
        </mxCell>
        <mxCell id="aZAM5jkkKFrz5zmuv4U6-113" value="볼 증가" style="whiteSpace=wrap;html=1;fontSize=10;" parent="1" vertex="1">
          <mxGeometry x="440" y="900" width="120" height="40" as="geometry" />
        </mxCell>
        <mxCell id="aZAM5jkkKFrz5zmuv4U6-114" value="" style="endArrow=classic;html=1;rounded=0;exitX=1;exitY=0.5;exitDx=0;exitDy=0;entryX=0;entryY=0.5;entryDx=0;entryDy=0;fontSize=10;" parent="1" source="aZAM5jkkKFrz5zmuv4U6-105" target="aZAM5jkkKFrz5zmuv4U6-113" edge="1">
          <mxGeometry width="50" height="50" relative="1" as="geometry">
            <mxPoint x="330" y="800" as="sourcePoint" />
            <mxPoint x="380" y="750" as="targetPoint" />
          </mxGeometry>
        </mxCell>
        <mxCell id="aZAM5jkkKFrz5zmuv4U6-115" value="Y" style="edgeLabel;html=1;align=center;verticalAlign=middle;resizable=0;points=[];fontSize=10;" parent="aZAM5jkkKFrz5zmuv4U6-114" vertex="1" connectable="0">
          <mxGeometry relative="1" as="geometry">
            <mxPoint as="offset" />
          </mxGeometry>
        </mxCell>
        <mxCell id="aZAM5jkkKFrz5zmuv4U6-116" value="&lt;font style=&quot;font-size: 10px;&quot;&gt;&lt;font style=&quot;font-size: 10px;&quot;&gt;두 번째&amp;nbsp;&lt;/font&gt;&lt;span style=&quot;background-color: initial; font-size: 10px;&quot;&gt;숫자가&lt;/span&gt;&lt;/font&gt;&lt;div style=&quot;font-size: 10px;&quot;&gt;&lt;font style=&quot;font-size: 10px;&quot;&gt;일치하는가?&lt;/font&gt;&lt;/div&gt;" style="rhombus;whiteSpace=wrap;html=1;fontSize=10;" parent="1" vertex="1">
          <mxGeometry x="280" y="1080" width="120" height="80" as="geometry" />
        </mxCell>
        <mxCell id="aZAM5jkkKFrz5zmuv4U6-117" value="" style="endArrow=classic;html=1;rounded=0;exitX=0.5;exitY=1;exitDx=0;exitDy=0;entryX=0.5;entryY=0;entryDx=0;entryDy=0;fontSize=10;" parent="1" source="aZAM5jkkKFrz5zmuv4U6-105" target="aZAM5jkkKFrz5zmuv4U6-127" edge="1">
          <mxGeometry width="50" height="50" relative="1" as="geometry">
            <mxPoint x="350" y="970" as="sourcePoint" />
            <mxPoint x="280" y="990" as="targetPoint" />
          </mxGeometry>
        </mxCell>
        <mxCell id="N44fVcZOIYQTb7Kql0Dz-4" value="N" style="edgeLabel;html=1;align=center;verticalAlign=middle;resizable=0;points=[];fontSize=10;" vertex="1" connectable="0" parent="aZAM5jkkKFrz5zmuv4U6-117">
          <mxGeometry relative="1" as="geometry">
            <mxPoint as="offset" />
          </mxGeometry>
        </mxCell>
        <mxCell id="aZAM5jkkKFrz5zmuv4U6-118" value="&lt;font style=&quot;font-size: 10px;&quot;&gt;두 번째&amp;nbsp;&lt;/font&gt;&lt;span style=&quot;font-size: 10px; background-color: initial;&quot;&gt;숫자가&lt;/span&gt;&lt;div style=&quot;font-size: 10px;&quot;&gt;&lt;font style=&quot;font-size: 10px;&quot;&gt;존재하는가?&lt;/font&gt;&lt;/div&gt;" style="rhombus;whiteSpace=wrap;html=1;fontSize=10;" parent="1" vertex="1">
          <mxGeometry x="280" y="1200" width="120" height="80" as="geometry" />
        </mxCell>
        <mxCell id="aZAM5jkkKFrz5zmuv4U6-119" value="" style="endArrow=classic;html=1;rounded=0;exitX=0.5;exitY=1;exitDx=0;exitDy=0;entryX=0.5;entryY=0;entryDx=0;entryDy=0;fontSize=10;" parent="1" source="aZAM5jkkKFrz5zmuv4U6-116" target="aZAM5jkkKFrz5zmuv4U6-118" edge="1">
          <mxGeometry width="50" height="50" relative="1" as="geometry">
            <mxPoint x="328" y="1127" as="sourcePoint" />
            <mxPoint x="378" y="1077" as="targetPoint" />
          </mxGeometry>
        </mxCell>
        <mxCell id="aZAM5jkkKFrz5zmuv4U6-120" value="N" style="edgeLabel;html=1;align=center;verticalAlign=middle;resizable=0;points=[];fontSize=10;" parent="aZAM5jkkKFrz5zmuv4U6-119" vertex="1" connectable="0">
          <mxGeometry relative="1" as="geometry">
            <mxPoint as="offset" />
          </mxGeometry>
        </mxCell>
        <mxCell id="aZAM5jkkKFrz5zmuv4U6-121" value="&lt;font style=&quot;font-size: 10px;&quot;&gt;스트라이크 증가&lt;/font&gt;" style="rounded=0;whiteSpace=wrap;html=1;fontSize=10;" parent="1" vertex="1">
          <mxGeometry x="120" y="1100" width="120" height="40" as="geometry" />
        </mxCell>
        <mxCell id="aZAM5jkkKFrz5zmuv4U6-122" value="" style="endArrow=classic;html=1;rounded=0;exitX=0;exitY=0.5;exitDx=0;exitDy=0;fontSize=10;entryX=1;entryY=0.5;entryDx=0;entryDy=0;" parent="1" source="aZAM5jkkKFrz5zmuv4U6-116" target="aZAM5jkkKFrz5zmuv4U6-121" edge="1">
          <mxGeometry width="50" height="50" relative="1" as="geometry">
            <mxPoint x="328" y="1127" as="sourcePoint" />
            <mxPoint x="270" y="1160" as="targetPoint" />
          </mxGeometry>
        </mxCell>
        <mxCell id="aZAM5jkkKFrz5zmuv4U6-123" value="Y" style="edgeLabel;html=1;align=center;verticalAlign=middle;resizable=0;points=[];fontSize=10;" parent="aZAM5jkkKFrz5zmuv4U6-122" vertex="1" connectable="0">
          <mxGeometry relative="1" as="geometry">
            <mxPoint as="offset" />
          </mxGeometry>
        </mxCell>
        <mxCell id="aZAM5jkkKFrz5zmuv4U6-124" value="볼 증가" style="whiteSpace=wrap;html=1;fontSize=10;" parent="1" vertex="1">
          <mxGeometry x="120" y="1220" width="120" height="40" as="geometry" />
        </mxCell>
        <mxCell id="aZAM5jkkKFrz5zmuv4U6-125" value="" style="endArrow=classic;html=1;rounded=0;exitX=0;exitY=0.5;exitDx=0;exitDy=0;entryX=1;entryY=0.5;entryDx=0;entryDy=0;fontSize=10;" parent="1" source="aZAM5jkkKFrz5zmuv4U6-118" target="aZAM5jkkKFrz5zmuv4U6-124" edge="1">
          <mxGeometry width="50" height="50" relative="1" as="geometry">
            <mxPoint x="330" y="1120" as="sourcePoint" />
            <mxPoint x="380" y="1070" as="targetPoint" />
          </mxGeometry>
        </mxCell>
        <mxCell id="aZAM5jkkKFrz5zmuv4U6-126" value="Y" style="edgeLabel;html=1;align=center;verticalAlign=middle;resizable=0;points=[];fontSize=10;" parent="aZAM5jkkKFrz5zmuv4U6-125" vertex="1" connectable="0">
          <mxGeometry relative="1" as="geometry">
            <mxPoint as="offset" />
          </mxGeometry>
        </mxCell>
        <mxCell id="aZAM5jkkKFrz5zmuv4U6-127" value="아웃 증가" style="whiteSpace=wrap;html=1;fontSize=10;" parent="1" vertex="1">
          <mxGeometry x="280" y="1000" width="120" height="40" as="geometry" />
        </mxCell>
        <mxCell id="aZAM5jkkKFrz5zmuv4U6-128" value="" style="endArrow=classic;html=1;rounded=0;exitX=0.5;exitY=1;exitDx=0;exitDy=0;entryX=0.5;entryY=0;entryDx=0;entryDy=0;fontSize=10;" parent="1" source="aZAM5jkkKFrz5zmuv4U6-127" target="aZAM5jkkKFrz5zmuv4U6-116" edge="1">
          <mxGeometry width="50" height="50" relative="1" as="geometry">
            <mxPoint x="310" y="1030" as="sourcePoint" />
            <mxPoint x="360" y="980" as="targetPoint" />
          </mxGeometry>
        </mxCell>
        <mxCell id="aZAM5jkkKFrz5zmuv4U6-129" value="" style="endArrow=classic;html=1;rounded=0;exitX=1;exitY=0.5;exitDx=0;exitDy=0;entryX=1;entryY=0.5;entryDx=0;entryDy=0;fontSize=10;" parent="1" source="aZAM5jkkKFrz5zmuv4U6-108" target="aZAM5jkkKFrz5zmuv4U6-116" edge="1">
          <mxGeometry width="50" height="50" relative="1" as="geometry">
            <mxPoint x="590" y="830" as="sourcePoint" />
            <mxPoint x="620" y="1120" as="targetPoint" />
            <Array as="points">
              <mxPoint x="600" y="800" />
              <mxPoint x="600" y="1120" />
            </Array>
          </mxGeometry>
        </mxCell>
        <mxCell id="aZAM5jkkKFrz5zmuv4U6-130" value="아웃 증가" style="whiteSpace=wrap;html=1;fontSize=10;" parent="1" vertex="1">
          <mxGeometry x="280" y="1320" width="120" height="40" as="geometry" />
        </mxCell>
        <mxCell id="aZAM5jkkKFrz5zmuv4U6-131" value="" style="endArrow=classic;html=1;rounded=0;exitX=0.5;exitY=1;exitDx=0;exitDy=0;entryX=0.5;entryY=0;entryDx=0;entryDy=0;fontSize=10;" parent="1" source="aZAM5jkkKFrz5zmuv4U6-118" target="aZAM5jkkKFrz5zmuv4U6-130" edge="1">
          <mxGeometry width="50" height="50" relative="1" as="geometry">
            <mxPoint x="300" y="1240" as="sourcePoint" />
            <mxPoint x="350" y="1190" as="targetPoint" />
          </mxGeometry>
        </mxCell>
        <mxCell id="aZAM5jkkKFrz5zmuv4U6-132" value="N" style="edgeLabel;html=1;align=center;verticalAlign=middle;resizable=0;points=[];fontSize=10;" parent="aZAM5jkkKFrz5zmuv4U6-131" vertex="1" connectable="0">
          <mxGeometry relative="1" as="geometry">
            <mxPoint as="offset" />
          </mxGeometry>
        </mxCell>
        <mxCell id="aZAM5jkkKFrz5zmuv4U6-133" value="" style="endArrow=classic;html=1;rounded=0;exitX=0;exitY=0.5;exitDx=0;exitDy=0;entryX=0;entryY=0.5;entryDx=0;entryDy=0;fontSize=10;" parent="1" source="aZAM5jkkKFrz5zmuv4U6-121" target="aZAM5jkkKFrz5zmuv4U6-134" edge="1">
          <mxGeometry width="50" height="50" relative="1" as="geometry">
            <mxPoint x="250" y="1190" as="sourcePoint" />
            <mxPoint x="80" y="1420" as="targetPoint" />
            <Array as="points">
              <mxPoint x="80" y="1120" />
              <mxPoint x="80" y="1440" />
            </Array>
          </mxGeometry>
        </mxCell>
        <mxCell id="aZAM5jkkKFrz5zmuv4U6-134" value="&lt;font style=&quot;font-size: 10px;&quot;&gt;&lt;font style=&quot;font-size: 10px;&quot;&gt;세 번째&amp;nbsp;&lt;/font&gt;&lt;span style=&quot;background-color: initial; font-size: 10px;&quot;&gt;숫자가&lt;/span&gt;&lt;/font&gt;&lt;div style=&quot;font-size: 10px;&quot;&gt;&lt;font style=&quot;font-size: 10px;&quot;&gt;일치하는가?&lt;/font&gt;&lt;/div&gt;" style="rhombus;whiteSpace=wrap;html=1;fontSize=10;" parent="1" vertex="1">
          <mxGeometry x="280" y="1400" width="120" height="80" as="geometry" />
        </mxCell>
        <mxCell id="aZAM5jkkKFrz5zmuv4U6-135" value="&lt;font style=&quot;font-size: 10px;&quot;&gt;세 번째&amp;nbsp;&lt;/font&gt;&lt;span style=&quot;font-size: 10px; background-color: initial;&quot;&gt;숫자가&lt;/span&gt;&lt;div style=&quot;font-size: 10px;&quot;&gt;&lt;font style=&quot;font-size: 10px;&quot;&gt;존재하는가?&lt;/font&gt;&lt;/div&gt;" style="rhombus;whiteSpace=wrap;html=1;fontSize=10;" parent="1" vertex="1">
          <mxGeometry x="280" y="1520" width="120" height="80" as="geometry" />
        </mxCell>
        <mxCell id="aZAM5jkkKFrz5zmuv4U6-136" value="" style="endArrow=classic;html=1;rounded=0;exitX=0.5;exitY=1;exitDx=0;exitDy=0;entryX=0.5;entryY=0;entryDx=0;entryDy=0;fontSize=10;" parent="1" source="aZAM5jkkKFrz5zmuv4U6-134" target="aZAM5jkkKFrz5zmuv4U6-135" edge="1">
          <mxGeometry width="50" height="50" relative="1" as="geometry">
            <mxPoint x="328" y="1447" as="sourcePoint" />
            <mxPoint x="378" y="1397" as="targetPoint" />
          </mxGeometry>
        </mxCell>
        <mxCell id="aZAM5jkkKFrz5zmuv4U6-137" value="N" style="edgeLabel;html=1;align=center;verticalAlign=middle;resizable=0;points=[];fontSize=10;" parent="aZAM5jkkKFrz5zmuv4U6-136" vertex="1" connectable="0">
          <mxGeometry relative="1" as="geometry">
            <mxPoint as="offset" />
          </mxGeometry>
        </mxCell>
        <mxCell id="aZAM5jkkKFrz5zmuv4U6-138" value="&lt;font style=&quot;font-size: 10px;&quot;&gt;스트라이크 증가&lt;/font&gt;" style="rounded=0;whiteSpace=wrap;html=1;fontSize=10;" parent="1" vertex="1">
          <mxGeometry x="440" y="1420" width="120" height="40" as="geometry" />
        </mxCell>
        <mxCell id="aZAM5jkkKFrz5zmuv4U6-139" value="" style="endArrow=classic;html=1;rounded=0;exitX=1;exitY=0.5;exitDx=0;exitDy=0;entryX=0;entryY=0.5;entryDx=0;entryDy=0;fontSize=10;" parent="1" source="aZAM5jkkKFrz5zmuv4U6-134" target="aZAM5jkkKFrz5zmuv4U6-138" edge="1">
          <mxGeometry width="50" height="50" relative="1" as="geometry">
            <mxPoint x="328" y="1447" as="sourcePoint" />
            <mxPoint x="378" y="1397" as="targetPoint" />
          </mxGeometry>
        </mxCell>
        <mxCell id="aZAM5jkkKFrz5zmuv4U6-140" value="Y" style="edgeLabel;html=1;align=center;verticalAlign=middle;resizable=0;points=[];fontSize=10;" parent="aZAM5jkkKFrz5zmuv4U6-139" vertex="1" connectable="0">
          <mxGeometry relative="1" as="geometry">
            <mxPoint as="offset" />
          </mxGeometry>
        </mxCell>
        <mxCell id="aZAM5jkkKFrz5zmuv4U6-141" value="볼 증가" style="whiteSpace=wrap;html=1;fontSize=10;" parent="1" vertex="1">
          <mxGeometry x="440" y="1540" width="120" height="40" as="geometry" />
        </mxCell>
        <mxCell id="aZAM5jkkKFrz5zmuv4U6-142" value="" style="endArrow=classic;html=1;rounded=0;exitX=1;exitY=0.5;exitDx=0;exitDy=0;entryX=0;entryY=0.5;entryDx=0;entryDy=0;fontSize=10;" parent="1" source="aZAM5jkkKFrz5zmuv4U6-135" target="aZAM5jkkKFrz5zmuv4U6-141" edge="1">
          <mxGeometry width="50" height="50" relative="1" as="geometry">
            <mxPoint x="330" y="1440" as="sourcePoint" />
            <mxPoint x="380" y="1390" as="targetPoint" />
          </mxGeometry>
        </mxCell>
        <mxCell id="aZAM5jkkKFrz5zmuv4U6-143" value="Y" style="edgeLabel;html=1;align=center;verticalAlign=middle;resizable=0;points=[];fontSize=10;" parent="aZAM5jkkKFrz5zmuv4U6-142" vertex="1" connectable="0">
          <mxGeometry relative="1" as="geometry">
            <mxPoint as="offset" />
          </mxGeometry>
        </mxCell>
        <mxCell id="aZAM5jkkKFrz5zmuv4U6-144" value="아웃이 3&lt;span style=&quot;background-color: initial; font-size: 10px;&quot;&gt;인가?&lt;/span&gt;" style="rhombus;whiteSpace=wrap;html=1;fontSize=10;" parent="1" vertex="1">
          <mxGeometry x="280" y="1720" width="120" height="80" as="geometry" />
        </mxCell>
        <mxCell id="aZAM5jkkKFrz5zmuv4U6-145" value="" style="endArrow=classic;html=1;rounded=0;exitX=0.5;exitY=1;exitDx=0;exitDy=0;entryX=0.5;entryY=0;entryDx=0;entryDy=0;fontSize=10;" parent="1" source="aZAM5jkkKFrz5zmuv4U6-135" target="aZAM5jkkKFrz5zmuv4U6-147" edge="1">
          <mxGeometry width="50" height="50" relative="1" as="geometry">
            <mxPoint x="350" y="1610" as="sourcePoint" />
            <mxPoint x="280" y="1630" as="targetPoint" />
          </mxGeometry>
        </mxCell>
        <mxCell id="aZAM5jkkKFrz5zmuv4U6-146" value="N" style="edgeLabel;html=1;align=center;verticalAlign=middle;resizable=0;points=[];fontSize=10;" parent="aZAM5jkkKFrz5zmuv4U6-145" vertex="1" connectable="0">
          <mxGeometry relative="1" as="geometry">
            <mxPoint as="offset" />
          </mxGeometry>
        </mxCell>
        <mxCell id="aZAM5jkkKFrz5zmuv4U6-147" value="아웃 증가" style="whiteSpace=wrap;html=1;fontSize=10;" parent="1" vertex="1">
          <mxGeometry x="280" y="1640" width="120" height="40" as="geometry" />
        </mxCell>
        <mxCell id="aZAM5jkkKFrz5zmuv4U6-148" value="" style="endArrow=classic;html=1;rounded=0;exitX=0.5;exitY=1;exitDx=0;exitDy=0;entryX=0.5;entryY=0;entryDx=0;entryDy=0;fontSize=10;" parent="1" source="aZAM5jkkKFrz5zmuv4U6-147" target="aZAM5jkkKFrz5zmuv4U6-144" edge="1">
          <mxGeometry width="50" height="50" relative="1" as="geometry">
            <mxPoint x="310" y="1670" as="sourcePoint" />
            <mxPoint x="360" y="1620" as="targetPoint" />
          </mxGeometry>
        </mxCell>
        <mxCell id="aZAM5jkkKFrz5zmuv4U6-149" value="" style="endArrow=classic;html=1;rounded=0;exitX=1;exitY=0.5;exitDx=0;exitDy=0;entryX=1;entryY=0.5;entryDx=0;entryDy=0;fontSize=10;" parent="1" source="aZAM5jkkKFrz5zmuv4U6-138" target="aZAM5jkkKFrz5zmuv4U6-144" edge="1">
          <mxGeometry width="50" height="50" relative="1" as="geometry">
            <mxPoint x="590" y="1470" as="sourcePoint" />
            <mxPoint x="620" y="1760" as="targetPoint" />
            <Array as="points">
              <mxPoint x="600" y="1440" />
              <mxPoint x="600" y="1760" />
            </Array>
          </mxGeometry>
        </mxCell>
        <mxCell id="aZAM5jkkKFrz5zmuv4U6-150" value="" style="endArrow=classic;html=1;rounded=0;exitX=0.5;exitY=1;exitDx=0;exitDy=0;entryX=0.5;entryY=0;entryDx=0;entryDy=0;fontSize=10;" parent="1" source="aZAM5jkkKFrz5zmuv4U6-130" target="aZAM5jkkKFrz5zmuv4U6-134" edge="1">
          <mxGeometry width="50" height="50" relative="1" as="geometry">
            <mxPoint x="260" y="1410" as="sourcePoint" />
            <mxPoint x="310" y="1360" as="targetPoint" />
          </mxGeometry>
        </mxCell>
        <mxCell id="aZAM5jkkKFrz5zmuv4U6-151" value="&lt;font style=&quot;font-size: 10px;&quot;&gt;랜덤 숫자 변수 선언&lt;/font&gt;" style="shape=hexagon;perimeter=hexagonPerimeter2;whiteSpace=wrap;html=1;fixedSize=1;fontSize=10;" parent="1" vertex="1">
          <mxGeometry x="280" y="120" width="120" height="40" as="geometry" />
        </mxCell>
        <mxCell id="aZAM5jkkKFrz5zmuv4U6-152" value="" style="endArrow=classic;html=1;rounded=0;exitX=0.5;exitY=1;exitDx=0;exitDy=0;entryX=0.5;entryY=0;entryDx=0;entryDy=0;fontSize=10;" parent="1" source="aZAM5jkkKFrz5zmuv4U6-151" target="aZAM5jkkKFrz5zmuv4U6-91" edge="1">
          <mxGeometry width="50" height="50" relative="1" as="geometry">
            <mxPoint x="350" y="90" as="sourcePoint" />
            <mxPoint x="350" y="130" as="targetPoint" />
          </mxGeometry>
        </mxCell>
        <mxCell id="aZAM5jkkKFrz5zmuv4U6-153" value="스트라이크, 볼, 아웃,&lt;div style=&quot;font-size: 10px;&quot;&gt;대답 변수 선언&lt;/div&gt;" style="shape=hexagon;perimeter=hexagonPerimeter2;whiteSpace=wrap;html=1;fixedSize=1;fontSize=10;" parent="1" vertex="1">
          <mxGeometry x="280" y="600" width="120" height="40" as="geometry" />
        </mxCell>
        <mxCell id="aZAM5jkkKFrz5zmuv4U6-154" value="" style="endArrow=classic;html=1;rounded=0;exitX=0.5;exitY=1;exitDx=0;exitDy=0;entryX=0.5;entryY=0;entryDx=0;entryDy=0;fontSize=10;" parent="1" source="aZAM5jkkKFrz5zmuv4U6-153" target="aZAM5jkkKFrz5zmuv4U6-102" edge="1">
          <mxGeometry width="50" height="50" relative="1" as="geometry">
            <mxPoint x="380" y="660" as="sourcePoint" />
            <mxPoint x="360" y="660" as="targetPoint" />
          </mxGeometry>
        </mxCell>
        <mxCell id="aZAM5jkkKFrz5zmuv4U6-155" value="" style="endArrow=classic;html=1;rounded=0;exitX=0;exitY=0.5;exitDx=0;exitDy=0;fontSize=10;entryX=1;entryY=0.5;entryDx=0;entryDy=0;" parent="1" source="aZAM5jkkKFrz5zmuv4U6-144" target="aZAM5jkkKFrz5zmuv4U6-157" edge="1">
          <mxGeometry width="50" height="50" relative="1" as="geometry">
            <mxPoint x="180" y="1800" as="sourcePoint" />
            <mxPoint x="240" y="1780" as="targetPoint" />
          </mxGeometry>
        </mxCell>
        <mxCell id="aZAM5jkkKFrz5zmuv4U6-156" value="Y" style="edgeLabel;html=1;align=center;verticalAlign=middle;resizable=0;points=[];fontSize=10;" parent="aZAM5jkkKFrz5zmuv4U6-155" vertex="1" connectable="0">
          <mxGeometry relative="1" as="geometry">
            <mxPoint as="offset" />
          </mxGeometry>
        </mxCell>
        <mxCell id="aZAM5jkkKFrz5zmuv4U6-157" value="아웃 출력" style="shape=document;whiteSpace=wrap;html=1;boundedLbl=1;fontSize=10;" parent="1" vertex="1">
          <mxGeometry x="120" y="1740" width="120" height="40" as="geometry" />
        </mxCell>
        <mxCell id="aZAM5jkkKFrz5zmuv4U6-158" value="" style="endArrow=classic;html=1;rounded=0;exitX=0;exitY=0.5;exitDx=0;exitDy=0;entryX=0;entryY=0.5;entryDx=0;entryDy=0;fontSize=10;" parent="1" source="aZAM5jkkKFrz5zmuv4U6-157" target="aZAM5jkkKFrz5zmuv4U6-159" edge="1">
          <mxGeometry width="50" height="50" relative="1" as="geometry">
            <mxPoint x="70" y="1760" as="sourcePoint" />
            <mxPoint x="100" y="540" as="targetPoint" />
            <Array as="points">
              <mxPoint x="40" y="1760" />
              <mxPoint x="40" y="520" />
            </Array>
          </mxGeometry>
        </mxCell>
        <mxCell id="aZAM5jkkKFrz5zmuv4U6-159" value="회말 증가" style="rounded=0;whiteSpace=wrap;html=1;fontSize=10;" parent="1" vertex="1">
          <mxGeometry x="120" y="500" width="120" height="40" as="geometry" />
        </mxCell>
        <mxCell id="aZAM5jkkKFrz5zmuv4U6-160" value="" style="endArrow=classic;html=1;rounded=0;exitX=1;exitY=0.5;exitDx=0;exitDy=0;entryX=0;entryY=0.5;entryDx=0;entryDy=0;fontSize=10;" parent="1" source="aZAM5jkkKFrz5zmuv4U6-159" target="aZAM5jkkKFrz5zmuv4U6-97" edge="1">
          <mxGeometry width="50" height="50" relative="1" as="geometry">
            <mxPoint x="230" y="510" as="sourcePoint" />
            <mxPoint x="280" y="460" as="targetPoint" />
          </mxGeometry>
        </mxCell>
        <mxCell id="aZAM5jkkKFrz5zmuv4U6-161" value="회말 변수 선언" style="shape=hexagon;perimeter=hexagonPerimeter2;whiteSpace=wrap;html=1;fixedSize=1;fontSize=10;" parent="1" vertex="1">
          <mxGeometry x="280" y="400" width="120" height="40" as="geometry" />
        </mxCell>
        <mxCell id="aZAM5jkkKFrz5zmuv4U6-162" value="" style="endArrow=classic;html=1;rounded=0;exitX=0.5;exitY=1;exitDx=0;exitDy=0;entryX=0.5;entryY=0;entryDx=0;entryDy=0;fontSize=10;" parent="1" source="aZAM5jkkKFrz5zmuv4U6-161" target="aZAM5jkkKFrz5zmuv4U6-97" edge="1">
          <mxGeometry width="50" height="50" relative="1" as="geometry">
            <mxPoint x="240" y="450" as="sourcePoint" />
            <mxPoint x="290" y="400" as="targetPoint" />
          </mxGeometry>
        </mxCell>
        <mxCell id="aZAM5jkkKFrz5zmuv4U6-163" value="" style="endArrow=classic;html=1;rounded=0;exitX=0.5;exitY=1;exitDx=0;exitDy=0;fontSize=10;entryX=0.5;entryY=0;entryDx=0;entryDy=0;" parent="1" source="aZAM5jkkKFrz5zmuv4U6-144" target="aZAM5jkkKFrz5zmuv4U6-165" edge="1">
          <mxGeometry width="50" height="50" relative="1" as="geometry">
            <mxPoint x="300" y="1830" as="sourcePoint" />
            <mxPoint x="380" y="1830" as="targetPoint" />
          </mxGeometry>
        </mxCell>
        <mxCell id="aZAM5jkkKFrz5zmuv4U6-164" value="N" style="edgeLabel;html=1;align=center;verticalAlign=middle;resizable=0;points=[];fontSize=10;" parent="aZAM5jkkKFrz5zmuv4U6-163" vertex="1" connectable="0">
          <mxGeometry relative="1" as="geometry">
            <mxPoint as="offset" />
          </mxGeometry>
        </mxCell>
        <mxCell id="aZAM5jkkKFrz5zmuv4U6-165" value="스트라이크가&lt;div style=&quot;font-size: 10px;&quot;&gt;3인가?&lt;/div&gt;" style="rhombus;whiteSpace=wrap;html=1;fontSize=10;" parent="1" vertex="1">
          <mxGeometry x="280" y="1840" width="120" height="80" as="geometry" />
        </mxCell>
        <mxCell id="aZAM5jkkKFrz5zmuv4U6-166" value="스크라이크, 볼 출력" style="shape=document;whiteSpace=wrap;html=1;boundedLbl=1;fontSize=10;" parent="1" vertex="1">
          <mxGeometry x="120" y="1860" width="120" height="40" as="geometry" />
        </mxCell>
        <mxCell id="aZAM5jkkKFrz5zmuv4U6-167" value="" style="endArrow=classic;html=1;rounded=0;exitX=0;exitY=0.5;exitDx=0;exitDy=0;entryX=1;entryY=0.5;entryDx=0;entryDy=0;fontSize=10;" parent="1" source="aZAM5jkkKFrz5zmuv4U6-165" target="aZAM5jkkKFrz5zmuv4U6-166" edge="1">
          <mxGeometry width="50" height="50" relative="1" as="geometry">
            <mxPoint x="170" y="1860" as="sourcePoint" />
            <mxPoint x="220" y="1810" as="targetPoint" />
          </mxGeometry>
        </mxCell>
        <mxCell id="N44fVcZOIYQTb7Kql0Dz-2" value="N" style="edgeLabel;html=1;align=center;verticalAlign=middle;resizable=0;points=[];fontSize=10;" vertex="1" connectable="0" parent="aZAM5jkkKFrz5zmuv4U6-167">
          <mxGeometry relative="1" as="geometry">
            <mxPoint as="offset" />
          </mxGeometry>
        </mxCell>
        <mxCell id="aZAM5jkkKFrz5zmuv4U6-168" value="" style="endArrow=none;html=1;rounded=0;exitX=1;exitY=0.5;exitDx=0;exitDy=0;fontSize=10;" parent="1" source="aZAM5jkkKFrz5zmuv4U6-141" edge="1">
          <mxGeometry width="50" height="50" relative="1" as="geometry">
            <mxPoint x="570" y="1560" as="sourcePoint" />
            <mxPoint x="600" y="1560" as="targetPoint" />
          </mxGeometry>
        </mxCell>
        <mxCell id="aZAM5jkkKFrz5zmuv4U6-169" value="" style="endArrow=none;html=1;rounded=0;entryX=0;entryY=0.5;entryDx=0;entryDy=0;fontSize=10;" parent="1" target="aZAM5jkkKFrz5zmuv4U6-166" edge="1">
          <mxGeometry width="50" height="50" relative="1" as="geometry">
            <mxPoint x="40" y="1760" as="sourcePoint" />
            <mxPoint x="180" y="1780" as="targetPoint" />
            <Array as="points">
              <mxPoint x="40" y="1880" />
            </Array>
          </mxGeometry>
        </mxCell>
        <mxCell id="aZAM5jkkKFrz5zmuv4U6-170" value="" style="endArrow=none;html=1;rounded=0;exitX=0;exitY=0.5;exitDx=0;exitDy=0;fontSize=10;" parent="1" source="aZAM5jkkKFrz5zmuv4U6-124" edge="1">
          <mxGeometry width="50" height="50" relative="1" as="geometry">
            <mxPoint x="110" y="1250" as="sourcePoint" />
            <mxPoint x="80" y="1240" as="targetPoint" />
          </mxGeometry>
        </mxCell>
        <mxCell id="aZAM5jkkKFrz5zmuv4U6-171" value="" style="endArrow=none;html=1;rounded=0;exitX=1;exitY=0.5;exitDx=0;exitDy=0;fontSize=10;" parent="1" source="aZAM5jkkKFrz5zmuv4U6-113" edge="1">
          <mxGeometry width="50" height="50" relative="1" as="geometry">
            <mxPoint x="470" y="890" as="sourcePoint" />
            <mxPoint x="600" y="920" as="targetPoint" />
          </mxGeometry>
        </mxCell>
        <mxCell id="aZAM5jkkKFrz5zmuv4U6-172" value="" style="endArrow=classic;html=1;rounded=0;exitX=0.5;exitY=1;exitDx=0;exitDy=0;entryX=0.5;entryY=0;entryDx=0;entryDy=0;fontSize=10;" parent="1" source="aZAM5jkkKFrz5zmuv4U6-165" target="aZAM5jkkKFrz5zmuv4U6-174" edge="1">
          <mxGeometry width="50" height="50" relative="1" as="geometry">
            <mxPoint x="340" y="1900" as="sourcePoint" />
            <mxPoint x="360" y="1950" as="targetPoint" />
          </mxGeometry>
        </mxCell>
        <mxCell id="N44fVcZOIYQTb7Kql0Dz-3" value="Y" style="edgeLabel;html=1;align=center;verticalAlign=middle;resizable=0;points=[];fontSize=10;" vertex="1" connectable="0" parent="aZAM5jkkKFrz5zmuv4U6-172">
          <mxGeometry relative="1" as="geometry">
            <mxPoint as="offset" />
          </mxGeometry>
        </mxCell>
        <mxCell id="aZAM5jkkKFrz5zmuv4U6-173" value="게임 끝" style="ellipse;whiteSpace=wrap;html=1;fontSize=10;" parent="1" vertex="1">
          <mxGeometry x="280" y="2040" width="120" height="40" as="geometry" />
        </mxCell>
        <mxCell id="aZAM5jkkKFrz5zmuv4U6-174" value="게임 승리 출력" style="shape=document;whiteSpace=wrap;html=1;boundedLbl=1;fontSize=10;" parent="1" vertex="1">
          <mxGeometry x="280" y="1960" width="120" height="40" as="geometry" />
        </mxCell>
        <mxCell id="aZAM5jkkKFrz5zmuv4U6-175" value="" style="endArrow=classic;html=1;rounded=0;entryX=0.5;entryY=0;entryDx=0;entryDy=0;fontSize=10;" parent="1" source="aZAM5jkkKFrz5zmuv4U6-174" target="aZAM5jkkKFrz5zmuv4U6-173" edge="1">
          <mxGeometry width="50" height="50" relative="1" as="geometry">
            <mxPoint x="360" y="2010" as="sourcePoint" />
            <mxPoint x="340" y="2050" as="targetPoint" />
          </mxGeometry>
        </mxCell>
        <mxCell id="aZAM5jkkKFrz5zmuv4U6-176" value="게임 패배 출력" style="shape=document;whiteSpace=wrap;html=1;boundedLbl=1;fontSize=10;" parent="1" vertex="1">
          <mxGeometry x="440" y="500" width="120" height="40" as="geometry" />
        </mxCell>
        <mxCell id="aZAM5jkkKFrz5zmuv4U6-177" value="" style="endArrow=classic;html=1;rounded=0;exitX=1;exitY=0.5;exitDx=0;exitDy=0;entryX=1;entryY=0.5;entryDx=0;entryDy=0;fontSize=10;" parent="1" source="aZAM5jkkKFrz5zmuv4U6-176" target="aZAM5jkkKFrz5zmuv4U6-173" edge="1">
          <mxGeometry width="50" height="50" relative="1" as="geometry">
            <mxPoint x="580" y="570" as="sourcePoint" />
            <mxPoint x="640" y="2060" as="targetPoint" />
            <Array as="points">
              <mxPoint x="640" y="520" />
              <mxPoint x="640" y="2060" />
            </Array>
          </mxGeometry>
        </mxCell>
      </root>
    </mxGraphModel>
  </diagram>
</mxfile>
